<mxfile host="app.diagrams.net" modified="2023-12-06T07:07:25.788Z" agent="Mozilla/5.0 (Windows NT 10.0; Win64; x64) AppleWebKit/537.36 (KHTML, like Gecko) Chrome/120.0.0.0 Safari/537.36" version="22.1.5" etag="FbUwYIvFTIMSTDYcRE4c" type="github">
  <diagram name="Trang-1" id="YmEPMzQXIAMVqNSswdc6">
    <mxGraphModel>
      <root>
        <mxCell id="0" />
        <mxCell id="1" parent="0" />
      </root>
    </mxGraphModel>
  </diagram>
</mxfile>
